<mxfile host="app.diagrams.net" modified="2023-06-01T13:13:59.021Z" agent="Mozilla/5.0 (Macintosh; Intel Mac OS X 10_15_7) AppleWebKit/537.36 (KHTML, like Gecko) Chrome/113.0.0.0 Safari/537.36" version="21.1.2" etag="eqwCH1bEEBpFbYid_PIk" type="github">
  <diagram name="Page-1" id="PRRsG1vOxlGqf8eoVwX4">
    <mxGraphModel>
      <root>
        <mxCell id="0" />
        <mxCell id="1" parent="0" />
      </root>
    </mxGraphModel>
  </diagram>
</mxfile>
